 <svg width="9" height="17" viewBox="0 0 9 17" fill="none"
  xmlns="http://www.w3.org/2000/svg">
  <path d="M7.56703 15.2799C6.8196 15.571 6.15521 15.7165 5.73998 15.862C5.32474 16.0075 4.7434 16.0803 4.16207 16.0803C3.24855 16.0803 2.50112 15.862 2.00283 15.4982C1.50454 15.1344 1.2554 14.6251 1.2554 13.9702C1.2554 13.752 1.2554 13.4609 1.33845 13.2426C1.33845 13.0244 1.4215 12.7333 1.50454 12.3695L2.50112 9.38634C2.58416 9.0953 2.66721 8.80426 2.75026 8.58597C2.83331 8.29493 2.83331 8.07665 2.83331 7.85837C2.83331 7.49457 2.75026 7.20353 2.58416 7.05801C2.41807 6.91249 2.08588 6.83973 1.58759 6.83973C1.33845 6.83973 1.08931 6.83973 0.840163 6.91249C0.59102 6.98525 0.341877 7.05801 0.175781 7.13077L0.424924 6.18488C1.08931 5.9666 1.67064 5.74832 2.25197 5.6028C2.83331 5.45728 3.33159 5.38452 3.91293 5.38452C4.82645 5.38452 5.57388 5.6028 6.07217 5.9666C6.57045 6.3304 6.8196 6.83973 6.8196 7.49457C6.8196 7.64009 6.8196 7.85837 6.73655 8.14941C6.73655 8.44045 6.6535 8.80426 6.57045 9.02254L5.57388 12.0057C5.49083 12.224 5.40779 12.515 5.32474 12.8061C5.24169 13.0971 5.24169 13.3154 5.24169 13.5337C5.24169 13.8975 5.32474 14.1885 5.57388 14.334C5.73998 14.4796 6.15521 14.5523 6.6535 14.5523C6.90264 14.5523 7.15179 14.4796 7.48398 14.4796C7.81617 14.4068 7.98226 14.334 8.14836 14.2613L7.56703 15.2799Z"
  fill="#079D49"/>
  <path d="M7.40129 3.20146C6.98605 3.56526 6.40472 3.71078 5.82338 3.71078C5.159 3.71078 4.66071 3.56526 4.16243 3.20146C3.74719 2.83766 3.49805 2.4011 3.49805 1.89177C3.49805 1.38245 3.74719 0.945884 4.16243 0.582082C4.57767 0.218281 5.159 0 5.82338 0C6.48776 0 6.98605 0.218281 7.40129 0.582082C7.81653 0.945884 8.06567 1.38245 8.06567 1.89177C8.06567 2.4011 7.89957 2.83766 7.40129 3.20146Z"
  fill="#079D49"/>
</svg>